<mxfile host="app.diagrams.net" modified="2023-05-13T02:02:45.407Z" agent="Mozilla/5.0 (Windows NT 10.0; Win64; x64) AppleWebKit/537.36 (KHTML, like Gecko) Chrome/113.0.0.0 Safari/537.36" etag="kiP6bsZ9z3UzqamPNvnw" version="21.3.0" type="github">
  <diagram name="Page-1" id="5d7acffa-a066-3a61-03fe-96351882024d">
    <mxGraphModel dx="3249" dy="1729" grid="1" gridSize="10" guides="1" tooltips="1" connect="1" arrows="1" fold="1" page="1" pageScale="1" pageWidth="1100" pageHeight="850" background="#ffffff" math="0" shadow="0">
      <root>
        <mxCell id="0" />
        <mxCell id="1" parent="0" />
        <mxCell id="4o1noMIlFruIAVSIZDxd-21" style="edgeStyle=orthogonalEdgeStyle;rounded=0;orthogonalLoop=1;jettySize=auto;html=1;entryX=0.933;entryY=-0.003;entryDx=0;entryDy=0;entryPerimeter=0;" edge="1" parent="1" source="21ea969265ad0168-6" target="4o1noMIlFruIAVSIZDxd-18">
          <mxGeometry relative="1" as="geometry" />
        </mxCell>
        <mxCell id="21ea969265ad0168-6" value="Function" style="swimlane;html=1;fontStyle=0;childLayout=stackLayout;horizontal=1;startSize=26;fillColor=#e0e0e0;horizontalStack=0;resizeParent=1;resizeLast=0;collapsible=1;marginBottom=0;swimlaneFillColor=#ffffff;align=center;rounded=1;shadow=0;comic=0;labelBackgroundColor=none;strokeWidth=1;fontFamily=Verdana;fontSize=12" parent="1" vertex="1">
          <mxGeometry x="-200" y="260" width="160" height="110" as="geometry" />
        </mxCell>
        <mxCell id="21ea969265ad0168-7" value="Row 1" style="text;html=1;strokeColor=none;fillColor=none;spacingLeft=4;spacingRight=4;whiteSpace=wrap;overflow=hidden;rotatable=0;points=[[0,0.5],[1,0.5]];portConstraint=eastwest;" parent="21ea969265ad0168-6" vertex="1">
          <mxGeometry y="26" width="160" height="26" as="geometry" />
        </mxCell>
        <mxCell id="4o1noMIlFruIAVSIZDxd-4" style="edgeStyle=orthogonalEdgeStyle;rounded=0;orthogonalLoop=1;jettySize=auto;html=1;exitX=1;exitY=1;exitDx=0;exitDy=0;entryX=0.25;entryY=0;entryDx=0;entryDy=0;" edge="1" parent="1" source="4o1noMIlFruIAVSIZDxd-3" target="21ea969265ad0168-6">
          <mxGeometry relative="1" as="geometry">
            <mxPoint x="-230" y="200" as="targetPoint" />
            <Array as="points">
              <mxPoint x="-280" y="140" />
              <mxPoint x="-280" y="175" />
              <mxPoint x="-180" y="175" />
              <mxPoint x="-180" y="200" />
              <mxPoint x="-160" y="200" />
            </Array>
          </mxGeometry>
        </mxCell>
        <mxCell id="4o1noMIlFruIAVSIZDxd-20" style="edgeStyle=orthogonalEdgeStyle;rounded=0;orthogonalLoop=1;jettySize=auto;html=1;entryX=0.715;entryY=-0.025;entryDx=0;entryDy=0;entryPerimeter=0;" edge="1" parent="1" source="4o1noMIlFruIAVSIZDxd-3" target="4o1noMIlFruIAVSIZDxd-18">
          <mxGeometry relative="1" as="geometry" />
        </mxCell>
        <mxCell id="4o1noMIlFruIAVSIZDxd-3" value="the real 1st project" style="rounded=0;whiteSpace=wrap;html=1;" vertex="1" parent="1">
          <mxGeometry x="-410" y="90" width="180" height="50" as="geometry" />
        </mxCell>
        <mxCell id="4o1noMIlFruIAVSIZDxd-23" style="edgeStyle=orthogonalEdgeStyle;rounded=0;orthogonalLoop=1;jettySize=auto;html=1;" edge="1" parent="1" source="4o1noMIlFruIAVSIZDxd-5" target="4o1noMIlFruIAVSIZDxd-18">
          <mxGeometry relative="1" as="geometry" />
        </mxCell>
        <mxCell id="4o1noMIlFruIAVSIZDxd-27" style="edgeStyle=orthogonalEdgeStyle;rounded=0;orthogonalLoop=1;jettySize=auto;html=1;entryX=0;entryY=0.5;entryDx=0;entryDy=0;" edge="1" parent="1" source="4o1noMIlFruIAVSIZDxd-5" target="4o1noMIlFruIAVSIZDxd-26">
          <mxGeometry relative="1" as="geometry" />
        </mxCell>
        <mxCell id="4o1noMIlFruIAVSIZDxd-5" value="############### ## #################&lt;br&gt;## FUNCTIONS IN PYTHON (ALL OF THEM): ##&lt;br&gt;&lt;br&gt;// math functions in python:&lt;br&gt;// --math.ce l( x ),&lt;br&gt;// --math.comb ( n, h ),&lt;br&gt;// --math.copysign( x, y ),&lt;br&gt;// --math.fabs ( x ),&lt;br&gt;// --math.factorial ( n ),&lt;br&gt;// --math.floor ( x ),&lt;br&gt;// --math.fmod ( x, y ),&lt;br&gt;// --math.frexp ( x ),&lt;br&gt;// --math.fsum ( iterable ),&lt;br&gt;// --math.gcd ( *integers ),&lt;br&gt;// --math.isclose ( a, b, *, rel_tol = 1e-09, abs_tol = 0.0 ),&lt;br&gt;//&amp;nbsp; --math.isfinite ( x ),&lt;br&gt;// --math.isinf ( x ),&lt;br&gt;// --math.isnan ( x ),&lt;br&gt;//&amp;nbsp; --math.isqrt ( n ),&lt;br&gt;// --math.lcm ( *integers ),&lt;br&gt;// --math.ldexp ( x, i ),&lt;br&gt;// --math.modf ( x ),&lt;br&gt;// --math.nextafter ( x, y ),&lt;br&gt;// --math.perm ( n,&amp;nbsp; n&amp;nbsp; = None ),&lt;br&gt;// --math.prod ( iterable, *, start = 1 ),&lt;br&gt;// --math.remainder ( x,&amp;nbsp; y ),&lt;br&gt;// --math.trunc ( x ),&lt;br&gt;// --math.ulp ( x ),&lt;br&gt;&lt;br&gt;## POWER AND LOGARITHMIC FUNCTIONS: ##&lt;br&gt;&lt;br&gt;// --math.cbrt ( x ),&lt;br&gt;// --math.exp ( x ),&lt;br&gt;// --math.exp2 ( x ),&lt;br&gt;// --math.expm1 ( x ),&lt;br&gt;// --math.log ( x [ ,&amp;nbsp; base ]&amp;nbsp; ),&lt;br&gt;// --math.log1p ( x ),&lt;br&gt;// --math.log10 ( x ),&lt;br&gt;// --math.pow ( x, y ),&lt;br&gt;// --math.sqrt ( x ),&lt;br&gt;&lt;br&gt;## TRIGONOMETRIC FUNCTIONS: ##&lt;br&gt;&lt;br&gt;// --math.acos ( x ),&lt;br&gt;// --math.asin ( x ),&lt;br&gt;// --math.atan ( x ),&lt;br&gt;// --math.atan2 ( y,&amp;nbsp; x&amp;nbsp; ),&lt;br&gt;// --math.cos ( x ),&lt;br&gt;// --math.dist ( p, q ),&lt;br&gt;// --math.hypot ( *coordinates ),&lt;br&gt;// --math.sin ( x ),&lt;br&gt;// --math.tan ( x ),&lt;br&gt;&lt;br&gt;##&amp;nbsp; ANGULAR CONVERSION: ##&lt;br&gt;&lt;br&gt;// --math.degrees ( x ),&lt;br&gt;// --math.radians ( x ),&lt;br&gt;&lt;br&gt;## HYPERBOLIC FUNCTIONS: ##&lt;br&gt;&lt;br&gt;// --math.acosh ( x ),&lt;br&gt;// --math.asinh ( x ),&lt;br&gt;// --math.atanh ( x ),&lt;br&gt;// --math.cosh ( x&amp;nbsp; ),&lt;br&gt;// --math.sinh ( x ),&lt;br&gt;// --math.tanh ( x ),&lt;br&gt;&lt;br&gt;## SPECIAL FUNCTIONS: ##&lt;br&gt;&lt;br&gt;// --math.erf ( x ),&lt;br&gt;// --math.erfc ( x ),&lt;br&gt;// --math.gamma ( x ),&lt;br&gt;// --math.lgamma ( x ),&lt;br&gt;&lt;br&gt;## CONSTANTS: ##&lt;br&gt;&lt;br&gt;// --math.pi&lt;br&gt;// --math.e&lt;br&gt;// --math.tau&lt;br&gt;// --math.inf&lt;br&gt;// --math.nan&lt;br&gt;&lt;br&gt;## ... ##&lt;br&gt;&lt;dd style=&quot;margin-top: 3px; margin-bottom: 0px; margin-left: 30px; hyphens: auto; text-align: left; line-height: 1.4; color: rgb(34, 34, 34); font-family: &amp;quot;Lucida Grande&amp;quot;, Arial, sans-serif; font-size: 14px; background-color: rgb(255, 255, 255);&quot;&gt;&lt;/dd&gt;" style="shape=cylinder3;whiteSpace=wrap;html=1;boundedLbl=1;backgroundOutline=1;size=15;" vertex="1" parent="1">
          <mxGeometry x="-1160" y="200" width="410" height="1470" as="geometry" />
        </mxCell>
        <mxCell id="4o1noMIlFruIAVSIZDxd-8" style="edgeStyle=orthogonalEdgeStyle;rounded=0;orthogonalLoop=1;jettySize=auto;html=1;entryX=0;entryY=0.5;entryDx=0;entryDy=0;" edge="1" parent="1" source="4o1noMIlFruIAVSIZDxd-7" target="4o1noMIlFruIAVSIZDxd-3">
          <mxGeometry relative="1" as="geometry" />
        </mxCell>
        <mxCell id="4o1noMIlFruIAVSIZDxd-10" style="edgeStyle=orthogonalEdgeStyle;rounded=0;orthogonalLoop=1;jettySize=auto;html=1;exitX=0.25;exitY=1;exitDx=0;exitDy=0;entryX=0.855;entryY=0;entryDx=0;entryDy=4.35;entryPerimeter=0;" edge="1" parent="1" source="4o1noMIlFruIAVSIZDxd-7" target="4o1noMIlFruIAVSIZDxd-5">
          <mxGeometry relative="1" as="geometry" />
        </mxCell>
        <mxCell id="4o1noMIlFruIAVSIZDxd-15" style="edgeStyle=orthogonalEdgeStyle;rounded=0;orthogonalLoop=1;jettySize=auto;html=1;entryX=0;entryY=0.5;entryDx=0;entryDy=0;" edge="1" parent="1" source="4o1noMIlFruIAVSIZDxd-7" target="4o1noMIlFruIAVSIZDxd-13">
          <mxGeometry relative="1" as="geometry" />
        </mxCell>
        <mxCell id="4o1noMIlFruIAVSIZDxd-17" style="edgeStyle=orthogonalEdgeStyle;rounded=0;orthogonalLoop=1;jettySize=auto;html=1;entryX=0;entryY=0.5;entryDx=0;entryDy=0;" edge="1" parent="1" source="4o1noMIlFruIAVSIZDxd-7" target="4o1noMIlFruIAVSIZDxd-16">
          <mxGeometry relative="1" as="geometry" />
        </mxCell>
        <mxCell id="4o1noMIlFruIAVSIZDxd-7" value="script para resolver problemas diversos de matematica." style="rounded=1;whiteSpace=wrap;html=1;" vertex="1" parent="1">
          <mxGeometry x="-740" y="90" width="150" height="60" as="geometry" />
        </mxCell>
        <mxCell id="4o1noMIlFruIAVSIZDxd-9" value="DATABASE:" style="rounded=0;whiteSpace=wrap;html=1;" vertex="1" parent="1">
          <mxGeometry x="-1020" y="250" width="120" height="60" as="geometry" />
        </mxCell>
        <mxCell id="4o1noMIlFruIAVSIZDxd-22" style="edgeStyle=orthogonalEdgeStyle;rounded=0;orthogonalLoop=1;jettySize=auto;html=1;" edge="1" parent="1" source="4o1noMIlFruIAVSIZDxd-13" target="4o1noMIlFruIAVSIZDxd-18">
          <mxGeometry relative="1" as="geometry" />
        </mxCell>
        <mxCell id="4o1noMIlFruIAVSIZDxd-13" value="LANGUAGE = CPP" style="rounded=1;whiteSpace=wrap;html=1;" vertex="1" parent="1">
          <mxGeometry x="-490" width="120" height="60" as="geometry" />
        </mxCell>
        <mxCell id="4o1noMIlFruIAVSIZDxd-19" style="edgeStyle=orthogonalEdgeStyle;rounded=0;orthogonalLoop=1;jettySize=auto;html=1;entryX=0.25;entryY=0;entryDx=0;entryDy=0;" edge="1" parent="1" source="4o1noMIlFruIAVSIZDxd-16" target="4o1noMIlFruIAVSIZDxd-18">
          <mxGeometry relative="1" as="geometry" />
        </mxCell>
        <mxCell id="4o1noMIlFruIAVSIZDxd-16" value="APP RUNS IN TERMINAL" style="rounded=1;whiteSpace=wrap;html=1;" vertex="1" parent="1">
          <mxGeometry x="-620" y="250" width="120" height="60" as="geometry" />
        </mxCell>
        <mxCell id="4o1noMIlFruIAVSIZDxd-18" value="1ST PROBLEM&amp;nbsp; = NOT SOLVED == HOW TO IMPLEMENT A&amp;nbsp; ALGORITHM TO RUN ALL FUNCTIONS TO SOLVE THE MATH PROBLEMS&amp;nbsp;" style="shape=process;whiteSpace=wrap;html=1;backgroundOutline=1;" vertex="1" parent="1">
          <mxGeometry x="-661" y="450" width="360" height="160" as="geometry" />
        </mxCell>
        <mxCell id="4o1noMIlFruIAVSIZDxd-31" style="edgeStyle=orthogonalEdgeStyle;rounded=0;orthogonalLoop=1;jettySize=auto;html=1;entryX=0;entryY=0.5;entryDx=0;entryDy=0;" edge="1" parent="1" source="4o1noMIlFruIAVSIZDxd-25" target="4o1noMIlFruIAVSIZDxd-30">
          <mxGeometry relative="1" as="geometry" />
        </mxCell>
        <mxCell id="4o1noMIlFruIAVSIZDxd-25" value="" style="html=1;whiteSpace=wrap;shape=isoCube2;backgroundOutline=1;isoAngle=15;" vertex="1" parent="1">
          <mxGeometry x="-260" y="820" width="360" height="370" as="geometry" />
        </mxCell>
        <mxCell id="4o1noMIlFruIAVSIZDxd-28" style="edgeStyle=orthogonalEdgeStyle;rounded=0;orthogonalLoop=1;jettySize=auto;html=1;" edge="1" parent="1" source="4o1noMIlFruIAVSIZDxd-26" target="4o1noMIlFruIAVSIZDxd-25">
          <mxGeometry relative="1" as="geometry" />
        </mxCell>
        <mxCell id="4o1noMIlFruIAVSIZDxd-26" value="IMPUT:" style="shape=ext;double=1;rounded=1;whiteSpace=wrap;html=1;" vertex="1" parent="1">
          <mxGeometry x="-570" y="980" width="120" height="80" as="geometry" />
        </mxCell>
        <mxCell id="4o1noMIlFruIAVSIZDxd-30" value="OUTPUT:" style="shape=ext;double=1;rounded=1;whiteSpace=wrap;html=1;" vertex="1" parent="1">
          <mxGeometry x="280" y="950" width="120" height="80" as="geometry" />
        </mxCell>
        <mxCell id="4o1noMIlFruIAVSIZDxd-34" style="edgeStyle=orthogonalEdgeStyle;rounded=0;orthogonalLoop=1;jettySize=auto;html=1;entryX=0.5;entryY=0;entryDx=0;entryDy=0;entryPerimeter=0;" edge="1" parent="1" source="4o1noMIlFruIAVSIZDxd-33" target="4o1noMIlFruIAVSIZDxd-25">
          <mxGeometry relative="1" as="geometry" />
        </mxCell>
        <mxCell id="4o1noMIlFruIAVSIZDxd-33" value="BLACKBOX:" style="ellipse;shape=cloud;whiteSpace=wrap;html=1;align=center;" vertex="1" parent="1">
          <mxGeometry x="10" y="590" width="200" height="140" as="geometry" />
        </mxCell>
      </root>
    </mxGraphModel>
  </diagram>
</mxfile>
